<?xml version="1.0" encoding="UTF-8" standalone="no"?>
<svg
   xmlns:dc="http://purl.org/dc/elements/1.1/"
   xmlns:cc="http://creativecommons.org/ns#"
   xmlns:rdf="http://www.w3.org/1999/02/22-rdf-syntax-ns#"
   xmlns:svg="http://www.w3.org/2000/svg"
   xmlns="http://www.w3.org/2000/svg"
   xmlns:sodipodi="http://sodipodi.sourceforge.net/DTD/sodipodi-0.dtd"
   xmlns:inkscape="http://www.inkscape.org/namespaces/inkscape"
   version="1.1"
   x="0px"
   y="0px"
   viewBox="0 0 100 125"
   enable-background="new 0 0 100 100"
   xml:space="preserve"
   id="svg2"
   inkscape:version="0.91 r13725"
   sodipodi:docname="noun_463115_cc.svg"><metadata
     id="metadata34"><rdf:RDF><cc:Work
         rdf:about=""><dc:format>image/svg+xml</dc:format><dc:type
           rdf:resource="http://purl.org/dc/dcmitype/StillImage" /></cc:Work></rdf:RDF></metadata><defs
     id="defs32" /><sodipodi:namedview
     pagecolor="#ffffff"
     bordercolor="#666666"
     borderopacity="1"
     objecttolerance="10"
     gridtolerance="10"
     guidetolerance="10"
     inkscape:pageopacity="0"
     inkscape:pageshadow="2"
     inkscape:window-width="640"
     inkscape:window-height="480"
     id="namedview30"
     showgrid="false"
     inkscape:zoom="1.888"
     inkscape:cx="40.730932"
     inkscape:cy="62.5"
     inkscape:window-x="0"
     inkscape:window-y="0"
     inkscape:window-maximized="0"
     inkscape:current-layer="svg2" /><path
     fill="#000000"
     d="M47.1,78.347c-3.534,0.824-6.244,0.633-7.828-0.558c-1.487-1.114-1.614-2.816-1.621-2.92  c-0.042-0.985-0.869-1.75-1.852-1.722c-0.99,0.031-1.765,0.863-1.732,1.856c0.003,0.139,0.145,3.426,2.98,5.607  c1.589,1.226,3.65,1.837,6.152,1.837c1.428,0,3.001-0.2,4.714-0.599c0.965-0.226,1.565-1.192,1.34-2.16  C49.029,78.721,48.065,78.118,47.1,78.347z"
     id="path4" /><path
     fill="#000000"
     d="M29.215,10.271c0.675,0.035,1.336-0.344,1.66-0.96c0.875-1.67,5.363-3.386,8.271-4.072  c0.963-0.227,1.562-1.195,1.336-2.163c-0.227-0.967-1.196-1.565-2.156-1.34c-1.303,0.306-7.415,1.875-9.973,4.936  c-3.191,0.062-13.064,0.848-18.406,8.041c-5.43,7.311-3.984,18.621-3.45,21.749c-1.254,1.878-4.176,7.379-4.858,18.608  c-0.062,0.993,0.691,1.847,1.679,1.906c0.039,0.002,0.076,0.004,0.113,0.004c0.939,0,1.73-0.735,1.788-1.69  C5.987,42.639,9.715,38.122,9.74,38.094c0.38-0.427,0.535-1.009,0.415-1.57c-0.025-0.127-2.571-12.607,2.669-19.663  C17.976,9.924,29.102,10.269,29.215,10.271z"
     id="path6" /><path
     fill="#000000"
     d="M36.049,94.549c-4.764-1.789-10.809-9.417-9.532-13.387c1.89-5.87,0.603-14.573-1.507-20.597  c-2.029-5.789-2.135-14.459-2.135-14.545c-0.011-0.988-0.811-1.781-1.793-1.781h-0.009c-0.988,0.005-1.785,0.809-1.785,1.799  c0,9.521-5.769,15.591-5.868,15.692c-0.692,0.707-0.684,1.845,0.02,2.541c0.705,0.696,1.839,0.691,2.536-0.016  c0.167-0.171,2.553-2.642,4.473-6.925c0.306,1.523,0.691,3.039,1.178,4.426c2.26,6.451,2.868,13.977,1.477,18.301  c-2.059,6.398,5.827,15.655,11.686,17.858c0.208,0.079,0.42,0.116,0.629,0.116c0.727,0,1.41-0.444,1.678-1.167  C37.447,95.935,36.978,94.897,36.049,94.549z"
     id="path8" /><path
     fill="#000000"
     d="M46.847,58.567c-6.052,1.168-9.011,0.147-10.425-0.92c-1.456-1.095-1.621-2.491-1.633-2.595  c-0.067-0.979-0.923-1.716-1.889-1.669c-0.988,0.055-1.746,0.904-1.689,1.896c0.018,0.307,0.243,3.046,2.935,5.15  c1.918,1.5,4.542,2.252,7.836,2.252c1.678,0,3.527-0.193,5.546-0.583c0.972-0.188,1.609-1.131,1.42-2.106  C48.762,59.016,47.823,58.376,46.847,58.567z"
     id="path10" /><path
     fill="#000000"
     d="M46.943,68.453c-4.329,0.893-7.608,0.618-9.477-0.79c-1.47-1.109-1.623-2.605-1.633-2.709  c-0.057-0.981-0.886-1.722-1.873-1.688c-0.992,0.048-1.755,0.89-1.708,1.882c0.014,0.317,0.227,3.188,2.956,5.312  c1.801,1.403,4.218,2.106,7.218,2.106c1.586,0,3.334-0.197,5.238-0.589c0.97-0.202,1.595-1.152,1.396-2.124  C48.86,68.88,47.916,68.256,46.943,68.453z"
     id="path12" /><path
     fill="#000000"
     d="M93.492,36.46c0.535-3.128,1.979-14.438-3.449-21.749c-5.344-7.193-15.217-7.979-18.408-8.041  c-2.56-3.061-8.668-4.629-9.973-4.936c-0.962-0.227-1.927,0.373-2.154,1.34c-0.225,0.967,0.373,1.936,1.335,2.163  c2.906,0.686,7.394,2.402,8.271,4.072c0.323,0.616,0.984,0.997,1.661,0.96c0.114,0,11.213-0.379,16.389,6.59  c5.24,7.056,2.694,19.536,2.67,19.661c-0.116,0.545,0.04,1.131,0.402,1.556c0.039,0.044,3.763,4.561,4.534,17.21  c0.057,0.955,0.848,1.69,1.787,1.69c0.036,0,0.073-0.002,0.112-0.004c0.988-0.06,1.74-0.913,1.679-1.906  C97.667,43.84,94.744,38.338,93.492,36.46z"
     id="path14" /><path
     fill="#000000"
     d="M80.699,46.038c0-0.99-0.798-1.793-1.784-1.799h-0.009c-0.983,0-1.785,0.793-1.794,1.783  c0,0.086-0.102,8.743-2.135,14.543c-2.109,6.025-3.396,14.729-1.507,20.597c1.276,3.97-4.771,11.598-9.531,13.387  c-0.929,0.349-1.398,1.386-1.05,2.316c0.269,0.723,0.953,1.167,1.679,1.167c0.21,0,0.422-0.037,0.63-0.116  c5.856-2.201,13.744-11.46,11.686-17.858c-1.389-4.322-0.782-11.848,1.477-18.301c0.487-1.387,0.872-2.902,1.177-4.426  c1.922,4.283,4.308,6.754,4.475,6.925c0.693,0.703,1.823,0.712,2.53,0.018c0.705-0.694,0.716-1.832,0.024-2.543  C86.509,61.671,80.699,55.593,80.699,46.038z"
     id="path16" /><path
     fill="#000000"
     d="M60.265,51.545c0.694,0,1.136-0.057,1.206-0.065c18.916-2.326,19.229-16.424,19.23-16.566  c0.005-0.993-0.793-1.804-1.783-1.811h-0.011c-0.984,0-1.788,0.798-1.793,1.788C77.112,35,76.857,45.962,61.01,47.912  c-0.06,0.009-6.106,0.763-9.289-5.065c-0.344-0.628-1.008-0.956-1.676-0.919c-0.017-0.001-0.034-0.002-0.05-0.004  c-0.018,0.002-0.033,0.003-0.051,0.004c-0.669-0.038-1.332,0.291-1.676,0.919c-3.149,5.767-9.05,5.094-9.314,5.064  c-15.666-1.927-16.069-12.545-16.078-13.029c-0.011-0.986-0.813-1.779-1.793-1.779H21.07c-0.99,0.007-1.788,0.818-1.781,1.811  c0,0.141,0.311,14.239,19.204,16.563c0.076,0.009,0.524,0.066,1.226,0.066c2.196,0,6.859-0.56,10.274-4.83  C53.416,50.99,58.084,51.545,60.265,51.545z"
     id="path18" /><path
     fill="#000000"
     d="M67.09,53.368c-1.018-0.066-1.836,0.689-1.89,1.681c-0.008,0.061-0.151,1.486-1.632,2.599  c-1.416,1.066-4.369,2.089-10.427,0.92c-0.976-0.191-1.915,0.448-2.102,1.425c-0.188,0.976,0.448,1.918,1.421,2.106  c2.021,0.39,3.868,0.583,5.546,0.583c3.295,0,5.918-0.752,7.837-2.252c2.691-2.104,2.918-4.844,2.935-5.15  C68.834,54.288,68.078,53.423,67.09,53.368z"
     id="path20" /><path
     fill="#000000"
     d="M64.155,64.948c-0.005,0.065-0.143,1.592-1.633,2.715c-1.871,1.408-5.148,1.683-9.476,0.79  c-0.971-0.197-1.919,0.427-2.119,1.399c-0.199,0.972,0.426,1.922,1.396,2.124c1.904,0.392,3.653,0.589,5.237,0.589  c3,0,5.418-0.703,7.218-2.106c2.729-2.124,2.942-4.994,2.956-5.312c0.048-0.981-0.701-1.805-1.679-1.866  C65.08,63.206,64.232,63.971,64.155,64.948z"
     id="path22" /><path
     fill="#000000"
     d="M65.921,75.004c0.033-0.993-0.742-1.825-1.732-1.856c-0.969-0.015-1.819,0.747-1.852,1.739  c-0.001,0.016-0.123,1.749-1.58,2.871c-1.581,1.218-4.301,1.421-7.868,0.589c-0.968-0.229-1.931,0.374-2.154,1.343  c-0.225,0.968,0.375,1.935,1.34,2.16c1.713,0.398,3.286,0.599,4.714,0.599c2.502,0,4.563-0.613,6.152-1.837  C65.776,78.43,65.917,75.143,65.921,75.004z"
     id="path24" /></svg>