<?xml version="1.0" encoding="UTF-8" standalone="no"?>
<svg
   xmlns:dc="http://purl.org/dc/elements/1.1/"
   xmlns:cc="http://creativecommons.org/ns#"
   xmlns:rdf="http://www.w3.org/1999/02/22-rdf-syntax-ns#"
   xmlns:svg="http://www.w3.org/2000/svg"
   xmlns="http://www.w3.org/2000/svg"
   xmlns:sodipodi="http://sodipodi.sourceforge.net/DTD/sodipodi-0.dtd"
   xmlns:inkscape="http://www.inkscape.org/namespaces/inkscape"
   version="1.1"
   x="0px"
   y="0px"
   viewBox="0 0 100 125"
   enable-background="new 0 0 100 100"
   xml:space="preserve"
   id="svg4146"
   inkscape:version="0.91 r13725"
   sodipodi:docname="noun_137870_cc.svg"><metadata
     id="metadata4166"><rdf:RDF><cc:Work
         rdf:about=""><dc:format>image/svg+xml</dc:format><dc:type
           rdf:resource="http://purl.org/dc/dcmitype/StillImage" /></cc:Work></rdf:RDF></metadata><defs
     id="defs4164" /><sodipodi:namedview
     pagecolor="#ffffff"
     bordercolor="#666666"
     borderopacity="1"
     objecttolerance="10"
     gridtolerance="10"
     guidetolerance="10"
     inkscape:pageopacity="0"
     inkscape:pageshadow="2"
     inkscape:window-width="705"
     inkscape:window-height="480"
     id="namedview4162"
     showgrid="false"
     inkscape:zoom="1.888"
     inkscape:cx="29.431502"
     inkscape:cy="62.5"
     inkscape:window-x="612"
     inkscape:window-y="143"
     inkscape:window-maximized="0"
     inkscape:current-layer="svg4146" /><path
     fill-rule="evenodd"
     clip-rule="evenodd"
     d="M22.867,93.232c-0.207-0.05-0.415-0.091-0.619-0.147  c-1.735-0.485-2.907-1.998-2.958-3.815c-0.002-0.077-0.001-0.154-0.001-0.231c0-18.225,0-36.448,0-54.672  c0-1.774,0.781-3.09,2.391-3.833c2.636-1.214,5.657,0.741,5.667,3.648c0.012,3.785,0.003,7.569,0.003,11.354  c0,13.071,0,26.142,0,39.213c0,0.125,0,0.248,0,0.391c15.108,0,30.191,0,45.307,0c0-0.145,0-0.278,0-0.411  c0-16.768,0.001-33.536-0.004-50.304c0-1.434,0.5-2.629,1.676-3.47c1.299-0.931,2.722-1.06,4.152-0.349  c1.441,0.716,2.169,1.941,2.249,3.548c0.003,0.078,0.001,0.155,0.001,0.233c0.001,18.214,0.001,36.429,0,54.643  c0,1.787-0.931,3.253-2.49,3.891c-0.335,0.139-0.698,0.211-1.048,0.314C59.084,93.232,40.976,93.232,22.867,93.232z"
     id="path4148" /><path
     fill-rule="evenodd"
     clip-rule="evenodd"
     d="M90.7,21.614c-0.049,0.226-0.088,0.455-0.146,0.678  c-0.455,1.722-1.931,2.917-3.711,3.009c-0.107,0.005-0.213,0.007-0.321,0.007c-24.342,0-48.685,0-73.027,0  c-1.99,0-3.587-1.209-4.046-3.07c-0.074-0.299-0.099-0.61-0.147-0.915c0-0.039,0-0.078,0-0.116c0.028-0.201,0.047-0.402,0.084-0.601  c0.376-2.01,2-3.36,4.044-3.36c7.85,0,15.7,0,23.55,0c0.122,0,0.244,0,0.384,0c0-0.146,0-0.251,0-0.356  c0-2.513-0.003-5.027,0.002-7.54c0.002-1.236,0.804-2.235,1.99-2.499c0.169-0.038,0.342-0.056,0.514-0.083  c6.773,0,13.548,0,20.321,0c0.046,0.013,0.091,0.033,0.138,0.039c1.456,0.197,2.315,1.179,2.315,2.646c0.002,2.474,0,4.947,0,7.421  c0,0.113,0,0.227,0,0.372c0.156,0,0.28,0,0.403,0c7.857,0,15.714-0.001,23.573,0c1.878,0,3.468,1.223,3.937,3.023  c0.06,0.232,0.097,0.47,0.144,0.705C90.7,21.187,90.7,21.4,90.7,21.614z M42.423,11.846c0,1.809,0,3.589,0,5.383  c5.065,0,10.112,0,15.172,0c0-1.802,0-3.589,0-5.383C52.531,11.846,47.492,11.846,42.423,11.846z"
     id="path4150" /><path
     fill-rule="evenodd"
     clip-rule="evenodd"
     d="M64.497,57.051c0,6.598,0.001,13.196,0,19.793  c-0.001,1.407-1.039,2.523-2.393,2.584c-1.432,0.062-2.596-1.023-2.65-2.474c-0.001-0.049,0-0.097,0-0.146  c0-13.166-0.001-26.332,0-39.497c0-1.281,0.76-2.275,1.949-2.563c1.517-0.367,3.029,0.776,3.091,2.337  c0.005,0.106,0.003,0.213,0.003,0.32C64.497,43.954,64.497,50.504,64.497,57.051z"
     id="path4152" /><path
     fill-rule="evenodd"
     clip-rule="evenodd"
     d="M40.409,56.838c0,6.558-0.004,13.116,0.004,19.675  c0.001,1.015-0.362,1.82-1.237,2.347c-1.646,0.993-3.741-0.168-3.796-2.089c-0.002-0.068-0.003-0.136-0.003-0.204  c0-13.146,0.001-26.291-0.003-39.437c0-0.897,0.304-1.636,1.031-2.166c0.805-0.587,1.691-0.669,2.583-0.237  c0.88,0.426,1.355,1.159,1.416,2.145c0.009,0.145,0.006,0.291,0.006,0.436C40.41,43.818,40.409,50.328,40.409,56.838z"
     id="path4154" /><path
     fill-rule="evenodd"
     clip-rule="evenodd"
     d="M52.52,56.943c0,6.597,0.002,13.194,0,19.791c0,1.311-0.831,2.319-2.095,2.555  c-1.451,0.272-2.881-0.877-2.931-2.354c-0.003-0.087-0.003-0.174-0.003-0.263c0-13.154,0-26.311,0-39.465  c0-1.308,0.775-2.306,1.997-2.578c1.476-0.33,2.944,0.782,3.026,2.291c0.008,0.125,0.006,0.251,0.006,0.378  C52.52,43.847,52.52,50.395,52.52,56.943z"
     id="path4156" /></svg>