<?xml version="1.0" encoding="UTF-8" standalone="no"?>
<svg
   xmlns:dc="http://purl.org/dc/elements/1.1/"
   xmlns:cc="http://creativecommons.org/ns#"
   xmlns:rdf="http://www.w3.org/1999/02/22-rdf-syntax-ns#"
   xmlns:svg="http://www.w3.org/2000/svg"
   xmlns="http://www.w3.org/2000/svg"
   xmlns:sodipodi="http://sodipodi.sourceforge.net/DTD/sodipodi-0.dtd"
   xmlns:inkscape="http://www.inkscape.org/namespaces/inkscape"
   version="1.1"
   x="0px"
   y="0px"
   viewBox="0 0 100 125"
   enable-background="new 0 0 100 100"
   xml:space="preserve"
   id="svg2"
   inkscape:version="0.91 r13725"
   sodipodi:docname="noun_143207_cc.svg"><metadata
     id="metadata14"><rdf:RDF><cc:Work
         rdf:about=""><dc:format>image/svg+xml</dc:format><dc:type
           rdf:resource="http://purl.org/dc/dcmitype/StillImage" /></cc:Work></rdf:RDF></metadata><defs
     id="defs12" /><sodipodi:namedview
     pagecolor="#ffffff"
     bordercolor="#666666"
     borderopacity="1"
     objecttolerance="10"
     gridtolerance="10"
     guidetolerance="10"
     inkscape:pageopacity="0"
     inkscape:pageshadow="2"
     inkscape:window-width="705"
     inkscape:window-height="480"
     id="namedview10"
     showgrid="false"
     inkscape:zoom="1.888"
     inkscape:cx="50"
     inkscape:cy="62.5"
     inkscape:window-x="0"
     inkscape:window-y="0"
     inkscape:window-maximized="0"
     inkscape:current-layer="svg2" /><path
     fill="#000000"
     d="M94.445,47.768c-0.243-0.507-0.521-1.004-0.939-1.422c-0.024-0.024-0.056-0.03-0.08-0.053L79.561,32.428  c-2.003-2.003-5.279-2.003-7.282,0s-2.003,5.279,0,7.282l5.785,5.785H54.572V22.002l5.837,5.837c2.003,2.003,5.279,2.003,7.282,0  s2.003-5.279,0-7.282L53.818,6.684c-0.023-0.024-0.03-0.057-0.053-0.08c-0.516-0.516-1.119-0.889-1.761-1.138  C51.418,5.186,50.781,5,50.088,5c-0.817,0-1.54,0.277-2.199,0.657c-0.511,0.244-1.012,0.525-1.434,0.947  c-0.024,0.024-0.03,0.056-0.053,0.08L32.469,20.617c-2.003,2.003-2.003,5.279,0,7.282s5.279,2.003,7.282,0l5.854-5.854v23.449  H22.051l5.904-5.904c2.003-2.003,2.003-5.279,0-7.282s-5.279-2.003-7.282,0L6.689,46.292c-0.024,0.023-0.057,0.03-0.08,0.053  C5.604,47.35,5.106,48.675,5.11,50c-0.004,1.324,0.494,2.65,1.499,3.655c0.024,0.024,0.056,0.03,0.08,0.053l13.96,13.96  c2.003,2.003,5.279,2.003,7.282,0s2.003-5.279,0-7.282l-5.924-5.924h23.597v23.598l-5.881-5.881c-2.003-2.003-5.279-2.003-7.282,0  s-2.003,5.279,0,7.282l13.96,13.96c0.023,0.024,0.03,0.057,0.053,0.08c1.005,1.005,2.33,1.503,3.655,1.499  c1.324,0.004,2.65-0.494,3.655-1.499c0.024-0.024,0.03-0.056,0.053-0.08l13.865-13.865c2.003-2.003,2.003-5.279,0-7.282  s-5.279-2.003-7.282,0l-5.829,5.828V54.461h23.536l-5.841,5.841c-2.003,2.003-2.003,5.279,0,7.282s5.279,2.003,7.282,0  l13.877-13.877c0.024-0.023,0.057-0.03,0.08-0.053c0.516-0.516,0.889-1.119,1.138-1.761c0.28-0.586,0.466-1.222,0.466-1.915  C95.11,49.156,94.83,48.429,94.445,47.768z"
     id="path4" /></svg>