<?xml version="1.0" encoding="UTF-8" standalone="no"?>
<svg
   xmlns:dc="http://purl.org/dc/elements/1.1/"
   xmlns:cc="http://creativecommons.org/ns#"
   xmlns:rdf="http://www.w3.org/1999/02/22-rdf-syntax-ns#"
   xmlns:svg="http://www.w3.org/2000/svg"
   xmlns="http://www.w3.org/2000/svg"
   xmlns:sodipodi="http://sodipodi.sourceforge.net/DTD/sodipodi-0.dtd"
   xmlns:inkscape="http://www.inkscape.org/namespaces/inkscape"
   version="1.1"
   x="0px"
   y="0px"
   viewBox="0 0 100 125"
   style="enable-background:new 0 0 100 100;"
   xml:space="preserve"
   id="svg2"
   inkscape:version="0.91 r13725"
   sodipodi:docname="noun_263310_cc.svg"><metadata
     id="metadata22"><rdf:RDF><cc:Work
         rdf:about=""><dc:format>image/svg+xml</dc:format><dc:type
           rdf:resource="http://purl.org/dc/dcmitype/StillImage" /></cc:Work></rdf:RDF></metadata><defs
     id="defs20" /><sodipodi:namedview
     pagecolor="#ffffff"
     bordercolor="#666666"
     borderopacity="1"
     objecttolerance="10"
     gridtolerance="10"
     guidetolerance="10"
     inkscape:pageopacity="0"
     inkscape:pageshadow="2"
     inkscape:window-width="705"
     inkscape:window-height="480"
     id="namedview18"
     showgrid="false"
     inkscape:zoom="1.888"
     inkscape:cx="50"
     inkscape:cy="62.5"
     inkscape:window-x="0"
     inkscape:window-y="0"
     inkscape:window-maximized="0"
     inkscape:current-layer="svg2" /><g
     id="g4"><g
       id="g6"><path
         d="M86,84c-1.1,0-2,0.9-2,2v2c0,1.1-0.9,2-2,2H38c-1.1,0-2-0.9-2-2v-2c0-1.1-0.9-2-2-2s-2,0.9-2,2v2c0,3.3,2.7,6,6,6h44    c3.3,0,6-2.7,6-6v-2C88,84.9,87.1,84,86,84z"
         id="path8" /><path
         d="M88,70H32c-3.3,0-6,2.7-6,6s2.7,6,6,6h17.7l11.7,3.9C61.6,86,61.8,86,62,86s0.4,0,0.6-0.1L74.3,82H88c3.3,0,6-2.7,6-6    S91.3,70,88,70z M88,78H74c-0.2,0-0.4,0-0.6,0.1L62,81.9l-11.4-3.8C50.4,78,50.2,78,50,78H32c-1.1,0-2-0.9-2-2s0.9-2,2-2h56    c1.1,0,2,0.9,2,2S89.1,78,88,78z"
         id="path10" /><path
         d="M26,90h-8.1l-3.8-60h39.7l-1.7,20.6C40.4,52.5,32,58.6,32,66c0,1.1,0.9,2,2,2s2-0.9,2-2c0-6.5,11-12,24-12s24,5.5,24,12    c0,1.1,0.9,2,2,2s2-0.9,2-2c0-9-12.3-16-28-16c-1.3,0-2.6,0.1-3.8,0.2L57.8,30H60c1.1,0,2-0.9,2-2s-0.9-2-2-2h-4h-7.8L50,8.2    c0.1-0.6-0.1-1.1-0.5-1.5C49.1,6.2,48.6,6,48,6h-6c-1,0-1.9,0.8-2,1.8L38.2,26H12H8c-1.1,0-2,0.9-2,2s0.9,2,2,2h2.1L14,92.1    c0.1,1.1,0.9,1.9,2,1.9h10c1.1,0,2-0.9,2-2S27.1,90,26,90z M43.8,10h2l-1.6,16h-2L43.8,10z"
         id="path12" /></g></g></svg>