<?xml version="1.0" encoding="UTF-8" standalone="no"?>
<svg
   xmlns:dc="http://purl.org/dc/elements/1.1/"
   xmlns:cc="http://creativecommons.org/ns#"
   xmlns:rdf="http://www.w3.org/1999/02/22-rdf-syntax-ns#"
   xmlns:svg="http://www.w3.org/2000/svg"
   xmlns="http://www.w3.org/2000/svg"
   xmlns:sodipodi="http://sodipodi.sourceforge.net/DTD/sodipodi-0.dtd"
   xmlns:inkscape="http://www.inkscape.org/namespaces/inkscape"
   version="1.1"
   viewBox="0 0 96 120"
   x="0px"
   y="0px"
   id="svg2"
   inkscape:version="0.91 r13725"
   sodipodi:docname="noun_68054_cc.svg">
  <metadata
     id="metadata28">
    <rdf:RDF>
      <cc:Work
         rdf:about="">
        <dc:format>image/svg+xml</dc:format>
        <dc:type
           rdf:resource="http://purl.org/dc/dcmitype/StillImage" />
      </cc:Work>
    </rdf:RDF>
  </metadata>
  <defs
     id="defs26" />
  <sodipodi:namedview
     pagecolor="#ffffff"
     bordercolor="#666666"
     borderopacity="1"
     objecttolerance="10"
     gridtolerance="10"
     guidetolerance="10"
     inkscape:pageopacity="0"
     inkscape:pageshadow="2"
     inkscape:window-width="705"
     inkscape:window-height="480"
     id="namedview24"
     showgrid="false"
     inkscape:zoom="1.9666667"
     inkscape:cx="48"
     inkscape:cy="19.322034"
     inkscape:window-x="0"
     inkscape:window-y="0"
     inkscape:window-maximized="0"
     inkscape:current-layer="svg2" />
  <path
     d="M47.388 75.852c-2.268 0-4.428-0.868-5.696-1.704-2.156-1.416-17.844-14.532-19.628-16.024l-5.44-4.58c-0.844-0.712-0.948-1.976-0.236-2.82 0.704-0.84 1.968-0.952 2.82-0.244l5.428 4.572c8.564 7.168 17.928 14.876 19.256 15.752 0.96 0.632 2.668 1.18 4.020 1.024 1.148-0.14 1.5-0.716 1.676-1.204 0.228-0.624 0.752-1.096 1.408-1.252 0.656-0.164 1.328 0.016 1.828 0.464 1.18 1.080 3.024 1.176 4.244 0.7 0.608-0.24 1.364-0.724 1.444-1.656 0.076-0.76 0.572-1.416 1.28-1.688s1.516-0.112 2.080 0.412c0.572 0.524 1.924 0.508 3.028-0.040 0.612-0.304 1.62-1.008 1.492-2.248-0.084-0.776 0.292-1.532 0.964-1.932 0.664-0.4 1.508-0.368 2.156 0.076 0.588 0.412 1.344 0.088 1.804-0.308 0.748-0.636 1.276-1.86 0.54-3.4-2.276-4.736-14.432-16.272-21.916-21.504l-0.064 0.020c-2.124 0.772-2.356 0.84-3.932 0.996-1.984 2.88-5.932 7.8-11.828 5.852-1.868-0.616-3.144-2.020-3.596-3.96-1.012-4.344 2.232-10.376 4.968-13.064 4.5-4.412 12.748-8.228 21.176-4.448 7.804 3.492 12.664 4.932 12.712 4.948 1.064 0.312 1.672 1.42 1.36 2.48s-1.416 1.672-2.48 1.356c-0.208-0.060-5.14-1.52-13.224-5.136-6.596-2.948-13.144 0.124-16.748 3.656-2.208 2.172-4.432 6.892-3.868 9.296 0.136 0.588 0.404 0.892 0.952 1.072 2.988 0.988 5.196-1.208 7.784-5.072 0.332-0.496 0.868-0.816 1.46-0.876l0.736-0.072c1.332-0.128 1.332-0.128 3.16-0.792l1.032-0.376c0.592-0.212 1.264-0.132 1.792 0.22 7.236 4.824 21.212 17.608 24.12 23.668 1.416 2.948 0.812 6.156-1.544 8.168-1.164 0.996-2.54 1.508-3.916 1.452-0.564 1.452-1.716 2.704-3.312 3.5-1.656 0.82-3.484 1.032-5.076 0.664-0.696 1.084-1.76 1.944-3.112 2.468-2.084 0.804-4.452 0.696-6.424-0.204-0.916 0.956-2.176 1.56-3.688 1.736-0.328 0.036-0.66 0.052-0.992 0.052z"
     fill="#000000"
     id="path4" />
  <path
     d="M40.952 28.484c-0.072 0-0.144-0.004-0.22-0.012-4.1-0.444-13.888-0.736-17.028-0.64-0.932 0.068-2.024-0.836-2.056-1.94-0.036-1.104 0.836-2.024 1.936-2.060 3.308-0.096 13.252 0.196 17.58 0.668 1.096 0.116 1.892 1.104 1.772 2.2-0.104 1.028-0.976 1.784-1.984 1.784z"
     fill="#000000"
     id="path6" />
  <path
     d="M74.204 60.072c-0.604 0-1.204-0.272-1.592-0.788-0.668-0.88-0.5-2.132 0.384-2.804l3.916-2.968c0.88-0.664 2.136-0.5 2.8 0.384s0.5 2.14-0.384 2.804l-3.916 2.972c-0.36 0.264-0.788 0.4-1.208 0.4z"
     fill="#000000"
     id="path8" />
  <path
     d="M68.368 67.092c-0.432 0-0.868-0.14-1.24-0.428-2.096-1.656-13.080-11.916-13.544-12.352-0.808-0.752-0.848-2.016-0.092-2.828s2.024-0.844 2.828-0.092c3.14 2.936 11.656 10.848 13.288 12.136 0.868 0.684 1.016 1.94 0.332 2.812-0.392 0.496-0.984 0.752-1.572 0.752z"
     fill="#000000"
     id="path10" />
  <path
     d="M60.5 71.060c-0.436 0-0.88-0.144-1.252-0.432-2.712-2.172-10.348-9.048-11.5-10.296-0.748-0.812-0.692-2.080 0.12-2.82 0.816-0.752 2.080-0.704 2.828 0.112 0.928 1.008 8.404 7.752 11.052 9.88 0.864 0.688 1.004 1.944 0.316 2.812-0.392 0.488-0.98 0.744-1.564 0.744z"
     fill="#000000"
     id="path12" />
  <path
     d="M51.46 73.312c-0.452 0-0.912-0.156-1.288-0.476-2.604-2.196-6.188-5.772-8.584-8.336-0.752-0.804-0.708-2.076 0.1-2.828s2.076-0.704 2.828 0.096c2.312 2.48 5.752 5.916 8.236 8.012 0.844 0.712 0.948 1.972 0.24 2.82-0.396 0.468-0.96 0.712-1.532 0.712z"
     fill="#000000"
     id="path14" />
  <path
     d="M7.184 60.476c-2.496 0-4.328-0.156-5.604-0.46-0.908-0.22-1.54-1.032-1.532-1.96 0.136-14.536 3.9-35.392 4.060-36.268 0.192-1.068 1.192-1.78 2.272-1.62 0.52 0.084 12.848 2.004 17.924 3.776 0.864 0.304 1.42 1.148 1.336 2.060-0.908 10.404-8.016 31.8-8.32 32.704-0.252 0.752-0.92 1.28-1.708 1.352-0.184 0.020-4.416 0.416-8.428 0.416zM4.084 56.352c2.168 0.196 7.492 0.008 9.852-0.164 1.456-4.5 6.348-20 7.544-28.94-3.988-1.12-10.532-2.272-13.772-2.816-0.896 5.3-3.3 20.412-3.624 31.92z"
     fill="#000000"
     id="path16" />
  <path
     d="M87.492 59.42c-4.304 0-7.18-0.328-8.796-0.992-0.572-0.236-1-0.72-1.164-1.32-1.532-5.544-7.18-21.424-9.616-25.344-0.304-0.488-0.388-1.084-0.216-1.64 0.172-0.552 0.572-1.004 1.092-1.236 0.288-0.132 7.12-3.16 14.436-3.16 1.548 0 3.028 0.144 4.396 0.412 0.5 0.096 0.94 0.384 1.24 0.796 4.828 6.736 6.86 27.72 7.076 30.084 0.052 0.532-0.12 1.072-0.464 1.476-0.352 0.416-0.852 0.664-1.388 0.704-0.004 0.004-3.128 0.22-6.596 0.22zM81.080 54.976c1 0.216 2.9 0.448 6.416 0.448 1.592 0 3.108-0.052 4.256-0.096-0.756-6.928-2.736-20.316-5.712-25.4-0.884-0.128-1.82-0.196-2.8-0.196-4.252 0-8.416 1.204-10.788 2.036 2.812 5.816 7.016 17.816 8.628 23.208z"
     fill="#000000"
     id="path18" />
</svg>
