<?xml version="1.0" encoding="UTF-8" standalone="no"?>
<svg
   xmlns:dc="http://purl.org/dc/elements/1.1/"
   xmlns:cc="http://creativecommons.org/ns#"
   xmlns:rdf="http://www.w3.org/1999/02/22-rdf-syntax-ns#"
   xmlns:svg="http://www.w3.org/2000/svg"
   xmlns="http://www.w3.org/2000/svg"
   xmlns:sodipodi="http://sodipodi.sourceforge.net/DTD/sodipodi-0.dtd"
   xmlns:inkscape="http://www.inkscape.org/namespaces/inkscape"
   version="1.1"
   x="0px"
   y="0px"
   viewBox="0 0 100 125"
   enable-background="new 0 0 100 100"
   xml:space="preserve"
   id="svg2"
   inkscape:version="0.91 r13725"
   sodipodi:docname="noun_17353_cc.svg"><metadata
     id="metadata128"><rdf:RDF><cc:Work
         rdf:about=""><dc:format>image/svg+xml</dc:format><dc:type
           rdf:resource="http://purl.org/dc/dcmitype/StillImage" /></cc:Work></rdf:RDF></metadata><defs
     id="defs126" /><sodipodi:namedview
     pagecolor="#ffffff"
     bordercolor="#666666"
     borderopacity="1"
     objecttolerance="10"
     gridtolerance="10"
     guidetolerance="10"
     inkscape:pageopacity="0"
     inkscape:pageshadow="2"
     inkscape:window-width="1920"
     inkscape:window-height="1027"
     id="namedview124"
     showgrid="false"
     inkscape:zoom="1.888"
     inkscape:cx="40.261311"
     inkscape:cy="62.52759"
     inkscape:window-x="-8"
     inkscape:window-y="-8"
     inkscape:window-maximized="1"
     inkscape:current-layer="svg2" /><rect
     style="fill:none"
     id="rect78"
     height="32.5"
     width="35"
     y="58"
     x="-50" /><g
     id="g114"><path
       display="none"
       fill="none"
       stroke="#000000"
       stroke-width="3"
       stroke-miterlimit="10"
       d="M54.151,6.309   c0,0,0.89-0.593,2.668-1.186c1.779-0.593,4.448-1.186,8.006-1.186c3.559,0,6.228,0.593,8.006,1.186   C74.61,5.716,75.5,6.309,75.5,6.309l-0.593,11.268l-0.594,11.268c0,0-0.296,1.482-1.186,3.558c-0.89,2.075-3.559,4.744-3.559,7.116   s0.297,2.372,0.594,5.485c0.296,3.113,0.593,6.375-0.594,9.933c-1.186,4.744-2.075,7.709-4.15,12.009   c-2.076,4.3-4.151,8.154-4.151,9.34c0,1.187,0.296,2.966,0.741,4.596c0.444,1.631,1.038,3.114,1.631,3.707s0.89,3.854-0.741,6.227   s-7.281-0.297-9.934-0.297c-3.558,0-8.302,1.187-10.674,2.372c-3.558,1.187-5.93,1.187-9.785,1.038s-7.413-1.038-8.006-4.596   c0,0,0.296-1.482,1.482-2.372s4.448-1.187,6.82,0c0,0,1.482-0.89,4.003-3.41s6.079-5.485,10.229-7.265c0,0,1.779-1.186,3.262-5.93   c1.483-4.744,2.668-13.047,1.483-27.279c0,0-1.186-1.482-1.779-4.003s-0.593-6.079,1.779-10.229c0,0,0.89-1.483,1.779-3.262   c0.889-1.779,1.778-3.855,1.778-5.041s-0.593-2.965-1.037-5.337C53.854,12.832,53.559,9.867,54.151,6.309z"
       id="path116" /><path
       d="M35.271,95.495c-0.87,0-1.795-0.029-2.823-0.068c-2.104-0.081-8.507-0.328-9.428-5.848l-0.045-0.271l0.054-0.27   c0.042-0.209,0.455-2.079,2.053-3.278c0.917-0.688,2.424-1.082,4.133-1.082c0.888,0,2.134,0.109,3.411,0.576   c0.617-0.463,1.69-1.337,3.118-2.765c3.42-3.42,6.956-5.943,10.513-7.502c0.271-0.257,1.507-1.558,2.607-5.079   c1.3-4.16,2.6-12.092,1.453-26.301c-0.446-0.669-1.294-2.134-1.778-4.19c-0.603-2.562-0.756-6.605,1.937-11.317   c0.024-0.042,0.888-1.486,1.74-3.188c1.503-3.009,1.62-4.106,1.62-4.37c0-0.553-0.212-1.457-0.457-2.503   c-0.179-0.761-0.378-1.614-0.555-2.558c-0.392-2.087-0.834-5.334-0.153-9.418l0.106-0.641l0.541-0.361   c0.108-0.072,1.112-0.722,3.025-1.36c2.516-0.838,5.369-1.263,8.48-1.263c3.069,0,6.001,0.437,8.48,1.263   c1.914,0.638,2.918,1.289,3.026,1.36l0.711,0.474l-1.259,23.603c-0.013,0.067-0.337,1.661-1.277,3.855   c-0.374,0.872-0.955,1.743-1.571,2.665c-0.875,1.31-1.866,2.795-1.866,3.861c0,1.231,0.081,1.716,0.215,2.52   c0.107,0.64,0.24,1.437,0.372,2.823c0.295,3.107,0.63,6.627-0.646,10.495c-1.24,4.959-2.151,7.913-4.241,12.242   c-0.469,0.971-0.938,1.919-1.382,2.818c-1.141,2.308-2.56,5.179-2.621,5.892c0.001,0.999,0.271,2.647,0.689,4.178   c0.493,1.812,1.015,2.812,1.244,3.042c1.313,1.313,1.311,5.408-0.565,8.137c-0.745,1.083-1.982,1.633-3.679,1.633   c-1.444,0-3.028-0.378-4.56-0.743c-1.105-0.264-2.249-0.536-2.932-0.536c-3.334,0-7.865,1.145-10.004,2.214l-0.196,0.081   C39.822,95.294,37.641,95.495,35.271,95.495z M26.042,89.394c0.336,1.37,1.523,2.843,6.521,3.035   c3.479,0.135,5.641,0.227,9.157-0.931c2.519-1.228,7.364-2.48,11.245-2.48c1.035,0,2.294,0.301,3.628,0.618   c1.362,0.325,2.771,0.661,3.863,0.661c0.446,0,1.018-0.058,1.206-0.332c1.154-1.679,1.021-3.867,0.812-4.427   c-0.885-0.975-1.525-2.841-1.913-4.263c-0.497-1.819-0.794-3.686-0.794-4.99c0-1.216,0.951-3.194,2.931-7.198   c0.44-0.893,0.905-1.832,1.37-2.794c1.981-4.106,2.85-6.935,4.046-11.72l0.032-0.111c1.097-3.287,0.805-6.353,0.523-9.316   c-0.122-1.281-0.24-1.99-0.345-2.614c-0.143-0.857-0.256-1.533-0.256-3.013c0-1.976,1.26-3.862,2.372-5.527   c0.536-0.804,1.043-1.563,1.308-2.18c0.687-1.602,0.994-2.828,1.073-3.169l1.13-21.464c-0.382-0.18-0.915-0.406-1.596-0.633   C70.839,6.04,68.3,5.437,64.825,5.437c-3.474,0-6.013,0.603-7.531,1.109c-0.791,0.264-1.382,0.525-1.77,0.717   c-0.443,3.285-0.077,5.925,0.25,7.665c0.167,0.896,0.357,1.705,0.526,2.426c0.3,1.278,0.536,2.288,0.536,3.188   c0,1.234-0.634,3.103-1.937,5.711c-0.905,1.81-1.797,3.3-1.835,3.363c-1.757,3.076-2.303,6.151-1.605,9.114   c0.5,2.123,1.486,3.404,1.496,3.417l0.275,0.353l0.043,0.453c0.999,12,0.479,21.372-1.546,27.851   c-1.562,4.998-3.491,6.483-3.862,6.73l-0.241,0.131c-4.069,1.744-7.554,4.74-9.76,6.946c-2.621,2.621-4.225,3.596-4.292,3.636   l-0.707,0.424l-0.736-0.368c-0.805-0.402-1.84-0.624-2.916-0.624c-1.24,0-2.075,0.288-2.333,0.482   C26.407,88.517,26.155,89.074,26.042,89.394z"
       id="path118" /></g></svg>