<?xml version="1.0" encoding="UTF-8" standalone="no"?>
<svg
   xmlns:dc="http://purl.org/dc/elements/1.1/"
   xmlns:cc="http://creativecommons.org/ns#"
   xmlns:rdf="http://www.w3.org/1999/02/22-rdf-syntax-ns#"
   xmlns:svg="http://www.w3.org/2000/svg"
   xmlns="http://www.w3.org/2000/svg"
   xmlns:sodipodi="http://sodipodi.sourceforge.net/DTD/sodipodi-0.dtd"
   xmlns:inkscape="http://www.inkscape.org/namespaces/inkscape"
   version="1.1"
   x="0px"
   y="0px"
   viewBox="0 0 100 125"
   enable-background="new 0 0 100 100"
   xml:space="preserve"
   id="svg2"
   inkscape:version="0.91 r13725"
   sodipodi:docname="noun_28375_cc.svg"><metadata
     id="metadata14"><rdf:RDF><cc:Work
         rdf:about=""><dc:format>image/svg+xml</dc:format><dc:type
           rdf:resource="http://purl.org/dc/dcmitype/StillImage" /></cc:Work></rdf:RDF></metadata><defs
     id="defs12" /><sodipodi:namedview
     pagecolor="#ffffff"
     bordercolor="#666666"
     borderopacity="1"
     objecttolerance="10"
     gridtolerance="10"
     guidetolerance="10"
     inkscape:pageopacity="0"
     inkscape:pageshadow="2"
     inkscape:window-width="705"
     inkscape:window-height="480"
     id="namedview10"
     showgrid="false"
     inkscape:zoom="1.888"
     inkscape:cx="50"
     inkscape:cy="62.5"
     inkscape:window-x="1001"
     inkscape:window-y="125"
     inkscape:window-maximized="0"
     inkscape:current-layer="svg2" /><path
     d="M3.849,30.766L29.287,5.317c3.318-3.317,8.693-3.313,12-0.003l25.457,25.452c3.312,3.314,3.307,8.679-0.006,11.992  c-3.316,3.316-8.683,3.31-11.996-0.002c-1.74-1.741-10.966-10.96-10.966-10.96l0.002,30.636c0,0.117-0.014-0.432-0.018,0.568h0.028  c0,10,7.932,11.648,10.797,11.934l35.385-0.11c4.684,0,8.481,3.743,8.481,8.427c0.005,4.683-3.798,8.455-8.481,8.453l-35.826-0.012  l-0.014-0.064c-1.152-0.004-6.976,0.274-12.922-2.802C32.114,84.12,27.05,76.212,26.882,63.225  c-0.039-0.333-0.064-0.669-0.064-1.011L26.813,31.8c0,0-9.218,9.208-10.971,10.96c-3.314,3.316-8.682,3.313-11.994,0  S0.536,34.076,3.849,30.766z"
     id="path4" /></svg>