<?xml version="1.0" encoding="UTF-8" standalone="no"?>
<svg
   xmlns:dc="http://purl.org/dc/elements/1.1/"
   xmlns:cc="http://creativecommons.org/ns#"
   xmlns:rdf="http://www.w3.org/1999/02/22-rdf-syntax-ns#"
   xmlns:svg="http://www.w3.org/2000/svg"
   xmlns="http://www.w3.org/2000/svg"
   xmlns:sodipodi="http://sodipodi.sourceforge.net/DTD/sodipodi-0.dtd"
   xmlns:inkscape="http://www.inkscape.org/namespaces/inkscape"
   version="1.1"
   x="0px"
   y="0px"
   viewBox="0 0 100 125"
   enable-background="new 0 0 63 63"
   xml:space="preserve"
   id="svg2"
   inkscape:version="0.91 r13725"
   sodipodi:docname="nurse.svg"
   width="100"
   height="125"><metadata
     id="metadata20"><rdf:RDF><cc:Work
         rdf:about=""><dc:format>image/svg+xml</dc:format><dc:type
           rdf:resource="http://purl.org/dc/dcmitype/StillImage" /><dc:title></dc:title></cc:Work></rdf:RDF></metadata><defs
     id="defs18" /><sodipodi:namedview
     pagecolor="#ffffff"
     bordercolor="#666666"
     borderopacity="1"
     objecttolerance="10"
     gridtolerance="10"
     guidetolerance="10"
     inkscape:pageopacity="0"
     inkscape:pageshadow="2"
     inkscape:window-width="1920"
     inkscape:window-height="1027"
     id="namedview16"
     showgrid="false"
     inkscape:zoom="2.9968254"
     inkscape:cx="-65.662438"
     inkscape:cy="39.375"
     inkscape:window-x="-8"
     inkscape:window-y="-8"
     inkscape:window-maximized="1"
     inkscape:current-layer="svg2" /><g
     id="g4"
     transform="matrix(1.409002,0,0,1.409002,6.5555224,10.676786)"><path
       d="m 57.1,50.7 c -0.3,-2.1 -2,-7.2 -8.6,-8.8 l 0,-18.1 c 0,-2.5 -0.5,-5 -1.6,-7.2 l 2,-12.9 C 37.2,-0.1 28.6,-1 14.3,3.7 l 1.9,12.9 c -1.1,2.2 -1.6,4.7 -1.6,7.2 l 0,18 c -0.2,0 -7.2,1.3 -8.6,8.8 l 0,11.7 2,0 0,-11.5 c 1.3,-6 6.7,-7 6.7,-7 2,-0.6 4.1,-1.1 6.1,-1.4 2.9,2.8 6.7,4.3 10.7,4.3 0,0 0,0 0,0 4,0 7.8,-1.5 10.7,-4.2 1.7,0.3 5.8,1.3 6.2,1.5 0,0 5.6,1.2 6.6,7 l 0,11.5 2,0 0.1,-11.8 z M 46.7,5.1 45.3,14.5 c -4.5,-1.3 -9.1,-2 -13.7,-2 -4.6,0 -9.2,0.6 -13.7,2 L 16.5,5.1 c 11,-3.4 19.3,-3.4 30.2,0 z M 31.5,44.8 c -3.1,0 -6,-1 -8.3,-2.9 1.6,-0.7 2.7,-2.1 3.2,-3.7 1.5,0.8 3.3,1.3 5.2,1.3 1.8,0 3.5,-0.4 5,-1.2 0.5,1.7 1.7,3 3.3,3.7 -2.4,1.8 -5.3,2.8 -8.4,2.8 0,0 0,0 0,0 z m 0.1,-7.3 c -5,0 -9,-4.1 -9,-9 l 0,-7 10.4,0 2.6,-2.6 2.6,2.6 2.4,0 0,7 c -0.1,5 -4.1,9 -9,9 z m 9.8,2.9 c -1.7,-0.2 -2.9,-1.6 -3.1,-3.3 2.5,-2 4.2,-5.1 4.2,-8.6 l 0,-9 -3.6,0 -3.4,-3.4 -3.4,3.4 -11.6,0 0,9 c 0,3.4 1.5,6.4 4,8.5 -0.1,1.7 -1.4,3.1 -3.1,3.4 l 0,0 c 0,0 -3.2,0.5 -4.9,1 l 0,-17.5 c 0,-2.6 0.7,-5.1 2,-7.4 8.6,-2.5 17.5,-2.5 26.1,0.1 1.3,2.2 1.9,4.8 1.9,7.4 l 0,17.6 c -1.9,-0.7 -5.1,-1.2 -5.1,-1.2 z"
       id="path6"
       inkscape:connector-curvature="0" /><polygon
       points="32.5,54.5 32.5,52.4 30.5,52.4 30.5,54.4 28.5,54.4 28.4,56.4 30.5,56.4 30.5,58.5 32.5,58.5 32.5,56.4 34.6,56.5 34.6,54.5 "
       id="polygon8" /><polygon
       points="30.6,8.5 30.6,10.6 32.6,10.6 32.6,8.5 34.7,8.5 34.7,6.5 32.6,6.5 32.6,4.5 30.6,4.4 30.6,6.5 28.6,6.5 28.6,8.5 "
       id="polygon10" /></g></svg>