<?xml version="1.0" encoding="UTF-8" standalone="no"?>
<svg
   xmlns:dc="http://purl.org/dc/elements/1.1/"
   xmlns:cc="http://creativecommons.org/ns#"
   xmlns:rdf="http://www.w3.org/1999/02/22-rdf-syntax-ns#"
   xmlns:svg="http://www.w3.org/2000/svg"
   xmlns="http://www.w3.org/2000/svg"
   xmlns:sodipodi="http://sodipodi.sourceforge.net/DTD/sodipodi-0.dtd"
   xmlns:inkscape="http://www.inkscape.org/namespaces/inkscape"
   version="1.1"
   x="0px"
   y="0px"
   viewBox="0 0 100 125"
   enable-background="new 0 0 100 100"
   xml:space="preserve"
   id="svg2"
   inkscape:version="0.91 r13725"
   sodipodi:docname="noun_35158_cc.svg"><metadata
     id="metadata18"><rdf:RDF><cc:Work
         rdf:about=""><dc:format>image/svg+xml</dc:format><dc:type
           rdf:resource="http://purl.org/dc/dcmitype/StillImage" /></cc:Work></rdf:RDF></metadata><defs
     id="defs16" /><sodipodi:namedview
     pagecolor="#ffffff"
     bordercolor="#666666"
     borderopacity="1"
     objecttolerance="10"
     gridtolerance="10"
     guidetolerance="10"
     inkscape:pageopacity="0"
     inkscape:pageshadow="2"
     inkscape:window-width="640"
     inkscape:window-height="480"
     id="namedview14"
     showgrid="false"
     inkscape:zoom="1.888"
     inkscape:cx="40.730932"
     inkscape:cy="62.5"
     inkscape:window-x="0"
     inkscape:window-y="0"
     inkscape:window-maximized="0"
     inkscape:current-layer="svg2" /><path
     d="M61.79,24.703l2.777,7.365l5.384,0.986l-4.621-5.197l6.641-2.068l-6.508-2.455l4.919-4.916l-6.903,0.85l2.07-6.64  l-5.716,3.96l-1.253-6.84L54.24,21.4C54.24,21.4,60.41,21.4,61.79,24.703z"
     id="path4" /><path
     d="M68.703,55.285l5.158-3.303l-6.098-0.572l3.034-5.32l-5.153,2.119l-2.327,7.242c-0.31,0.832-1.047,1.386-1.894,1.543  l0.009,6.629l3.82,4.624l-0.169-6.123l5.647,2.37l-2.995-5.344l6.102-0.526L68.703,55.285z"
     id="path6" /><path
     d="M60.638,54.252l4.106-12.781c0.243-0.566,0.457-1.518,0.034-2.576l-4.573-12.127c-1.096-2.465-4.586-2.72-5.896-2.67  L44.044,24.16c0,0,1.685-1.641,1.718-1.748c0.168,0.047,0.343,0.075,0.516,0.109c0.4,0.078,0.81,0.137,1.233,0.137  c2.968,0,5.464-1.997,6.233-4.719c0.159-0.562,0.25-1.152,0.25-1.767c0-3.581-2.903-6.483-6.483-6.483s-6.483,2.902-6.483,6.483  c0,0.835,0.12,1.553,0.386,2.242l-10.884,8.483c-0.684,0.581-1.517,2.206-1.15,3.51c0.455,1.618,1.947,2.594,2.712,2.451  c1.848-0.34,5.946-1.364,5.946-1.364l0.046,54.36c0,2.461,1.989,4.455,4.446,4.455c2.456,0,4.445-1.994,4.445-4.455V56.531h2.918  v29.324c0,2.461,1.991,4.455,4.447,4.455c2.454,0,4.446-1.994,4.446-4.455l-0.042-30.061C59.591,55.639,60.326,55.085,60.638,54.252  z M59.533,40.344l-0.571,2.831l-0.253-5.155L59.533,40.344z"
     id="path8" /></svg>