<?xml version="1.0" encoding="UTF-8" standalone="no"?>
<svg
   xmlns:dc="http://purl.org/dc/elements/1.1/"
   xmlns:cc="http://creativecommons.org/ns#"
   xmlns:rdf="http://www.w3.org/1999/02/22-rdf-syntax-ns#"
   xmlns:svg="http://www.w3.org/2000/svg"
   xmlns="http://www.w3.org/2000/svg"
   xmlns:sodipodi="http://sodipodi.sourceforge.net/DTD/sodipodi-0.dtd"
   xmlns:inkscape="http://www.inkscape.org/namespaces/inkscape"
   version="1.1"
   x="0px"
   y="0px"
   viewBox="0 0 100 125"
   enable-background="new 0 0 100 100"
   xml:space="preserve"
   id="svg2"
   inkscape:version="0.91 r13725"
   sodipodi:docname="noun_146785_cc.svg"><metadata
     id="metadata18"><rdf:RDF><cc:Work
         rdf:about=""><dc:format>image/svg+xml</dc:format><dc:type
           rdf:resource="http://purl.org/dc/dcmitype/StillImage" /></cc:Work></rdf:RDF></metadata><defs
     id="defs16" /><sodipodi:namedview
     pagecolor="#ffffff"
     bordercolor="#666666"
     borderopacity="1"
     objecttolerance="10"
     gridtolerance="10"
     guidetolerance="10"
     inkscape:pageopacity="0"
     inkscape:pageshadow="2"
     inkscape:window-width="705"
     inkscape:window-height="480"
     id="namedview14"
     showgrid="false"
     inkscape:zoom="1.888"
     inkscape:cx="50"
     inkscape:cy="62.5"
     inkscape:window-x="430"
     inkscape:window-y="193"
     inkscape:window-maximized="0"
     inkscape:current-layer="svg2" /><rect
     x="5.789"
     y="38.037"
     width="13.273"
     height="27.006"
     id="rect4" /><polygon
     points="47.651,88.889 23.984,71.105 23.984,32.246 47.651,14.462 "
     id="polygon6" /><path
     stroke="#000000"
     stroke-width="0.9262"
     stroke-miterlimit="10"
     d="M93.545,23.556H68.699l0.242,26.535  c-1.276-1.29-2.915-2.066-4.705-2.066c-4.062,0-7.356,3.999-7.356,8.934c0,4.933,3.294,8.933,7.356,8.933  c4.063,0,7.358-4,7.358-8.933c0-0.133-0.013-0.259-0.017-0.39h0.017V32.877h19.177v15.157c-1.259-1.219-2.85-1.951-4.583-1.951  c-4.063,0-7.358,4-7.358,8.932c0,4.935,3.295,8.933,7.358,8.933c4.062,0,7.356-3.998,7.356-8.933c0-0.536-0.046-1.059-0.121-1.569  L93.545,23.556z"
     id="path8" /></svg>