<?xml version="1.0" encoding="UTF-8" standalone="no"?>
<svg
   xmlns:dc="http://purl.org/dc/elements/1.1/"
   xmlns:cc="http://creativecommons.org/ns#"
   xmlns:rdf="http://www.w3.org/1999/02/22-rdf-syntax-ns#"
   xmlns:svg="http://www.w3.org/2000/svg"
   xmlns="http://www.w3.org/2000/svg"
   xmlns:sodipodi="http://sodipodi.sourceforge.net/DTD/sodipodi-0.dtd"
   xmlns:inkscape="http://www.inkscape.org/namespaces/inkscape"
   version="1.1"
   x="0px"
   y="0px"
   viewBox="0 0 100 125"
   enable-background="new 0 0 100 100"
   xml:space="preserve"
   id="svg2"
   inkscape:version="0.91 r13725"
   sodipodi:docname="speak.svg"><metadata
     id="metadata136"><rdf:RDF><cc:Work
         rdf:about=""><dc:format>image/svg+xml</dc:format><dc:type
           rdf:resource="http://purl.org/dc/dcmitype/StillImage" /></cc:Work></rdf:RDF></metadata><defs
     id="defs134" /><sodipodi:namedview
     pagecolor="#ffffff"
     bordercolor="#666666"
     borderopacity="1"
     objecttolerance="10"
     gridtolerance="10"
     guidetolerance="10"
     inkscape:pageopacity="0"
     inkscape:pageshadow="2"
     inkscape:window-width="1920"
     inkscape:window-height="1027"
     id="namedview132"
     showgrid="false"
     inkscape:zoom="0.6675088"
     inkscape:cx="-28.898939"
     inkscape:cy="455.01267"
     inkscape:window-x="-8"
     inkscape:window-y="-8"
     inkscape:window-maximized="1"
     inkscape:current-layer="svg2" /><g
     id="g10"><path
       fill="#000000"
       d="M85.979,46.562c-0.356-0.589-0.998-0.95-1.687-0.95c-0.046,0-4.555-0.023-6.91-1.961   c-2.266-1.864-10.104-8.024-15.859-9.025c-0.505-0.088-1.05-0.133-1.618-0.133c-3.695,0-8.019,1.914-9.903,2.845   c-1.886-0.931-6.207-2.845-9.903-2.845c-0.568,0-1.113,0.044-1.619,0.132c-5.043,0.878-12.085,6.02-15.834,9.006   c-1.924,1.532-5.695,1.949-6.984,1.98c-0.681,0.015-1.306,0.381-1.65,0.967c-0.346,0.588-0.362,1.311-0.044,1.914   c0.497,0.939,12.44,23.041,36.035,23.041c23.594,0,35.538-22.102,36.035-23.041C86.357,47.884,86.333,47.151,85.979,46.562z    M50.001,67.606c-16.687,0-27.214-12.855-30.991-18.426c1.925-0.357,4.311-1.066,6.082-2.477c5.88-4.686,11.006-7.678,14.061-8.21   c0.285-0.049,0.602-0.074,0.945-0.074c3.759,0,8.9,2.817,8.951,2.845c0.592,0.329,1.312,0.329,1.903,0   c1.429-0.792,5.818-2.845,8.952-2.845c0.343,0,0.661,0.025,0.944,0.075c3.824,0.666,9.951,4.828,14.037,8.19   c1.793,1.475,4.164,2.188,6.087,2.533C77.188,54.808,66.697,67.606,50.001,67.606z"
       id="path12" /><path
       fill="#000000"
       d="M72.357,48.05c-0.255-0.062-6.302-1.564-10.86-1.564c-2.766,0-5.312,0.988-7.558,1.859   c-1.529,0.592-2.973,1.152-3.938,1.152c-0.965,0-2.409-0.561-3.938-1.152c-2.247-0.871-4.792-1.859-7.558-1.859   c-4.56,0-10.605,1.502-10.86,1.564c-0.69,0.174-1.234,0.709-1.42,1.396c-0.184,0.689,0.019,1.424,0.53,1.92   c0.491,0.477,12.164,11.666,23.246,11.666s22.755-11.189,23.246-11.666c0.512-0.496,0.714-1.23,0.53-1.92   C73.593,48.759,73.049,48.224,72.357,48.05z M50.001,59.104c-6.504,0-13.682-4.916-17.587-8.039   c1.895-0.336,4.181-0.652,6.091-0.652c2.031,0,4.118,0.811,6.138,1.594c1.881,0.729,3.658,1.418,5.358,1.418   c1.699,0,3.478-0.689,5.358-1.418c2.02-0.783,4.107-1.594,6.138-1.594c1.91,0,4.195,0.316,6.091,0.652   C63.684,54.188,56.505,59.104,50.001,59.104z"
       id="path14" /></g><g
     id="g116"><path
       fill="#000000"
       d="M19.933,77.445c-0.331,0-0.664-0.108-0.941-0.332c-0.645-0.521-0.746-1.465-0.226-2.109l4.864-6.03   c0.521-0.646,1.463-0.747,2.109-0.227c0.645,0.521,0.746,1.465,0.226,2.109l-4.864,6.03C20.805,77.255,20.371,77.445,19.933,77.445   z"
       id="path118" /><path
       fill="#000000"
       d="M50.274,88.076L50.274,88.076c-0.829,0-1.5-0.672-1.5-1.501l0.003-7.747c0-0.828,0.672-1.499,1.5-1.499h0   c0.828,0,1.5,0.672,1.499,1.501l-0.002,7.747C51.773,87.405,51.103,88.076,50.274,88.076z"
       id="path120" /><path
       fill="#000000"
       d="M80.569,77.314c-0.438,0-0.873-0.191-1.169-0.56l-4.859-6.033c-0.52-0.645-0.418-1.589,0.228-2.108   c0.643-0.521,1.589-0.418,2.108,0.228l4.859,6.033c0.52,0.645,0.418,1.589-0.228,2.108C81.232,77.206,80.899,77.314,80.569,77.314z   "
       id="path122" /><path
       fill="#000000"
       d="M67.436,84.887c-0.604,0-1.175-0.368-1.402-0.968l-2.751-7.242c-0.294-0.774,0.096-1.641,0.87-1.935   c0.77-0.291,1.641,0.094,1.935,0.87l2.751,7.242c0.294,0.774-0.096,1.641-0.87,1.935C67.793,84.855,67.613,84.887,67.436,84.887z"
       id="path124" /><path
       fill="#000000"
       d="M33.187,84.994c-0.176,0-0.355-0.031-0.53-0.097c-0.775-0.293-1.166-1.159-0.872-1.934l2.741-7.246   c0.293-0.775,1.158-1.163,1.934-0.873c0.775,0.293,1.166,1.159,0.872,1.934l-2.741,7.246   C34.363,84.625,33.793,84.994,33.187,84.994z"
       id="path126" /></g></svg>