<?xml version="1.0" encoding="UTF-8" standalone="no"?>
<svg
   xmlns:dc="http://purl.org/dc/elements/1.1/"
   xmlns:cc="http://creativecommons.org/ns#"
   xmlns:rdf="http://www.w3.org/1999/02/22-rdf-syntax-ns#"
   xmlns:svg="http://www.w3.org/2000/svg"
   xmlns="http://www.w3.org/2000/svg"
   xmlns:sodipodi="http://sodipodi.sourceforge.net/DTD/sodipodi-0.dtd"
   xmlns:inkscape="http://www.inkscape.org/namespaces/inkscape"
   version="1.1"
   x="0px"
   y="0px"
   viewBox="0 0 100 120.22875"
   enable-background="new 0 0 100 96.183"
   xml:space="preserve"
   id="svg2"
   inkscape:version="0.91 r13725"
   sodipodi:docname="star-filled.svg"><metadata
     id="metadata14"><rdf:RDF><cc:Work
         rdf:about=""><dc:format>image/svg+xml</dc:format><dc:type
           rdf:resource="http://purl.org/dc/dcmitype/StillImage" /><dc:title></dc:title></cc:Work></rdf:RDF></metadata><defs
     id="defs12" /><sodipodi:namedview
     pagecolor="#ffffff"
     bordercolor="#666666"
     borderopacity="1"
     objecttolerance="10"
     gridtolerance="10"
     guidetolerance="10"
     inkscape:pageopacity="0"
     inkscape:pageshadow="2"
     inkscape:window-width="1920"
     inkscape:window-height="1027"
     id="namedview10"
     showgrid="false"
     inkscape:zoom="1.9629248"
     inkscape:cx="6.697271"
     inkscape:cy="60.114376"
     inkscape:window-x="-8"
     inkscape:window-y="-8"
     inkscape:window-maximized="1"
     inkscape:current-layer="svg2" /><path
     d="M99.469,35.923c-1.442-4.41-5.533-7.439-10.179-7.541l-21.8-0.44L60.334,7.341C58.788,2.951,54.639,0,50.002,0  c-4.65,0-8.801,2.956-10.332,7.356l-7.162,20.586l-21.799,0.44c-4.651,0.101-8.74,3.133-10.188,7.568  c-1.418,4.437,0.117,9.295,3.811,12.081L21.7,61.207l-6.307,20.862c-1.347,4.454,0.277,9.285,4.039,12.017  c3.707,2.692,8.955,2.736,12.683,0.126l17.888-12.438l17.901,12.448c1.86,1.282,4.02,1.961,6.241,1.961  c2.291,0,4.509-0.719,6.429-2.094c3.755-2.728,5.379-7.553,4.04-12.02l-6.314-20.862l17.375-13.173  C99.375,45.226,100.9,40.368,99.469,35.923z M90.5,41.211L68.376,57.985l8.04,26.55c0.298,0.994-0.044,2.025-0.849,2.608  c-0.852,0.605-1.954,0.61-2.786,0.039L50.002,71.347L27.216,87.19c-0.812,0.568-1.948,0.557-2.752-0.029  c-0.83-0.604-1.173-1.63-0.875-2.614l8.029-26.562L9.499,41.207c-0.803-0.608-1.133-1.673-0.828-2.626  c0.312-0.957,1.206-1.617,2.217-1.639l27.749-0.561l9.12-26.215c0.334-0.959,1.236-1.604,2.246-1.604  c1.008,0,1.914,0.65,2.248,1.604l9.107,26.215l27.755,0.561c1.012,0.022,1.905,0.682,2.213,1.626  C91.633,39.523,91.293,40.609,90.5,41.211z"
     id="path4" /><path
     style="opacity:1;fill:#ffff00;fill-opacity:1;fill-rule:evenodd;stroke:#000000;stroke-width:2;stroke-linecap:butt;stroke-linejoin:round;stroke-miterlimit:4;stroke-dasharray:none;stroke-dashoffset:4.0999999;stroke-opacity:1"
     d="M 24.307047,86.77527 C 23.597984,86.066206 24.076769,84.000039 27.848934,71.490472 29.983769,64.410761 31.611142,58.307354 31.46532,57.927348 31.319497,57.54734 26.259322,53.492001 20.220486,48.915481 14.18165,44.338962 9.122726,40.286881 8.9784321,39.910858 8.5635098,38.829587 9.2089348,37.71104 10.395987,37.454178 c 0.599531,-0.12973 7.266479,-0.414313 14.81544,-0.632407 l 13.725384,-0.396534 4.513381,-12.990819 c 2.48236,-7.14495 4.934755,-13.417589 5.449766,-13.9391983 1.869746,-1.8936999 2.584683,-0.6032977 7.490407,13.5195713 l 4.658254,13.410446 9.096732,0.318498 c 5.003197,0.175175 11.430163,0.347112 14.282136,0.382083 5.402744,0.06625 7.037657,0.679266 6.684607,2.506418 -0.08404,0.434958 -5.196302,4.618215 -11.360573,9.296127 -6.164271,4.677912 -11.264125,8.821894 -11.333006,9.208849 -0.06888,0.386955 1.683584,6.664048 3.894367,13.949095 4.164494,13.722976 4.339728,15.028594 2.017051,15.028594 -0.580501,0 -6.168163,-3.553371 -12.417017,-7.89638 -6.248852,-4.343009 -11.6082,-7.89638 -11.909662,-7.89638 -0.301461,0 -5.652413,3.55197 -11.891003,7.893262 -10.343505,7.197811 -12.814255,8.550817 -13.805204,7.559867 z"
     id="path4137"
     inkscape:connector-curvature="0" /></svg>